<svg id="Layer_1" data-name="Layer 1" xmlns="http://www.w3.org/2000/svg" viewBox="0 0 105.01 21.75"><defs><style>.cls-1,.cls-2{fill:#e9bf49;}.cls-2{opacity:0.5;}</style></defs><title>logo</title><path class="cls-1" d="M10.81,11,0,.12V21.88H21.75Z" transform="translate(0 -0.12)"/><path class="cls-1" d="M24.86,11V21.88H35V11Z" transform="translate(0 -0.12)"/><path class="cls-1" d="M38.1.12V10.27H55.28V.12Z" transform="translate(0 -0.12)"/><path class="cls-1" d="M70.27.12V7.9h0v7h0v6.93h9.87V.12ZM58.39,21.88h9.87V.12H58.39Z" transform="translate(0 -0.12)"/><path class="cls-1" d="M94.13.12A10.88,10.88,0,1,0,105,11,10.88,10.88,0,0,0,94.13.12Zm0,15A4.08,4.08,0,1,1,98.21,11,4.08,4.08,0,0,1,94.13,15.08Z" transform="translate(0 -0.12)"/><rect class="cls-2" x="24.86" width="10.14" height="10.88"/><rect class="cls-2" x="41.7" y="10.14" width="10.14" height="11.61"/><rect class="cls-2" x="68.26" y="7.78" width="2.01" height="7.05"/><polygon class="cls-2" points="21.75 0 21.75 21.75 10.82 10.88 21.75 0"/><circle class="cls-2" cx="94.13" cy="10.88" r="4.08"/></svg>